<svg xmlns="http://www.w3.org/2000/svg" width="545" height="77"><defs><clipPath id="a"><path d="M0 0h545v77H0z"/></clipPath></defs><g clip-path="url(#a)" data-name="Custom Size – 1"><path fill="#006f3b" d="M153.53 15.01h28.96v4.93h-23.9v15.8h23.7v4.93h-23.7v19.85h23.7v4.93h-28.76V15.01Z" data-name="Path 1"/><path fill="#006f3b" d="M190.38 28.11h4.79v6.69a19.936 19.936 0 0 1 6.38-5.73 15.772 15.772 0 0 1 7.62-1.9 13.249 13.249 0 0 1 7.43 2.13 12.691 12.691 0 0 1 4.78 5.73q1.545 3.6 1.54 11.22v19.21h-4.79V47.67a44.431 44.431 0 0 0-.53-8.6 9.411 9.411 0 0 0-3.2-5.57 9.723 9.723 0 0 0-6.18-1.87 11.853 11.853 0 0 0-7.81 2.88 13.455 13.455 0 0 0-4.55 7.13 49.216 49.216 0 0 0-.69 10.14v13.67h-4.79Z" data-name="Path 2"/><path fill="#006f3b" d="M229.69 28.11h5.05l12.52 27.26 12.4-27.26h5.14l-17.08 37.34h-.88Z" data-name="Path 3"/><path fill="#006f3b" d="M271.45 28.11h4.79v37.34h-4.79Z" data-name="Path 4"/><path fill="#006f3b" d="M284.36 28.11h4.93v5.45a17.144 17.144 0 0 1 4.64-4.81 9.158 9.158 0 0 1 5.08-1.59 8.733 8.733 0 0 1 4.26 1.27l-2.5 4.04a6.808 6.808 0 0 0-2.54-.65 6.993 6.993 0 0 0-4.64 1.97 12.465 12.465 0 0 0-3.4 6.12q-.885 3.195-.89 12.9v12.63h-4.93V28.11Z" data-name="Path 5"/><path fill="#006f3b" d="M324.98 27.16a18.5 18.5 0 0 1 14.3 6.24 20.012 20.012 0 0 1-.29 27.14 19.737 19.737 0 0 1-28.05 0 19.961 19.961 0 0 1-.29-27.1 18.472 18.472 0 0 1 14.33-6.28Zm-.02 4.73a13.787 13.787 0 0 0-10.26 4.42 14.754 14.754 0 0 0-4.29 10.68 15.111 15.111 0 0 0 1.96 7.53 13.894 13.894 0 0 0 5.28 5.39 15.012 15.012 0 0 0 14.62 0 13.825 13.825 0 0 0 5.28-5.39 15.215 15.215 0 0 0 1.96-7.53 14.764 14.764 0 0 0-4.31-10.68 13.791 13.791 0 0 0-10.24-4.42Z" data-name="Path 6"/><path fill="#006f3b" d="M353.63 65.44V13.73h4.79v20.81a20.405 20.405 0 0 1 6.74-5.54 18.869 18.869 0 0 1 21.68 3.9 19.251 19.251 0 0 1 5.6 13.94 18.961 18.961 0 0 1-5.65 13.82 18.394 18.394 0 0 1-13.59 5.73 17.381 17.381 0 0 1-8.25-1.95 19.274 19.274 0 0 1-6.54-5.86v6.86h-4.78Zm19.19-3.71a14.434 14.434 0 0 0 12.76-7.47 15.091 15.091 0 0 0-.02-15.05 14.612 14.612 0 0 0-5.42-5.58 14.134 14.134 0 0 0-7.26-2 15 15 0 0 0-7.47 2 13.933 13.933 0 0 0-5.44 5.38 15.215 15.215 0 0 0-1.9 7.61 14.787 14.787 0 0 0 4.26 10.79 14.176 14.176 0 0 0 10.49 4.32Z" data-name="Path 7"/><path fill="#006f3b" d="M400.52 13.73h4.79v51.72h-4.79Z" data-name="Path 8"/><path fill="#006f3b" d="M414.58 28.11h4.79v37.34h-4.79Z" data-name="Path 9"/><path fill="#006f3b" d="M429.31 28.11h4.79v6.69a19.936 19.936 0 0 1 6.38-5.73 15.761 15.761 0 0 1 7.61-1.9 13.226 13.226 0 0 1 7.43 2.13 12.629 12.629 0 0 1 4.78 5.73q1.545 3.6 1.54 11.22v19.21h-4.79V47.67a44.431 44.431 0 0 0-.53-8.6 9.411 9.411 0 0 0-3.2-5.57 9.723 9.723 0 0 0-6.18-1.87 11.853 11.853 0 0 0-7.81 2.88 13.454 13.454 0 0 0-4.55 7.13 49.217 49.217 0 0 0-.69 10.14v13.67h-4.79V28.11Z" data-name="Path 10"/><path fill="#006f3b" d="M509.34 13.73v51.72h-4.79v-6.41a20.479 20.479 0 0 1-6.75 5.51 18.869 18.869 0 0 1-21.68-3.9 19.279 19.279 0 0 1-5.59-13.97 18.917 18.917 0 0 1 5.64-13.78 18.372 18.372 0 0 1 13.58-5.73 17.431 17.431 0 0 1 8.29 1.96 18.959 18.959 0 0 1 6.52 5.86V13.73Zm-19.22 18.09a14.421 14.421 0 0 0-12.74 7.49 15.1 15.1 0 0 0 .01 15.04 14.685 14.685 0 0 0 5.41 5.59 14.126 14.126 0 0 0 7.28 2 14.941 14.941 0 0 0 7.44-1.98 13.938 13.938 0 0 0 5.41-5.36 15.352 15.352 0 0 0 1.89-7.62 14.786 14.786 0 0 0-4.25-10.8 14 14 0 0 0-10.45-4.36Z" data-name="Path 11"/><path fill="#006f3b" d="M273.83 14.58a3.961 3.961 0 0 1 3.97 3.96 3.946 3.946 0 1 1-3.97-3.96Z" data-name="Path 12"/><path fill="#006f3b" d="M416.96 14.58a3.939 3.939 0 0 1 2.8 6.73 3.945 3.945 0 0 1-6.73-2.77 3.961 3.961 0 0 1 3.93-3.96Z" data-name="Path 13"/><path fill="#8bc53f" d="M133.65 26.39H22.64L34.05 8.25h111Z" data-name="Path 14"/><path fill="#268f3b" d="M129.32 48.51h-111l11.41-18.14h111Z" data-name="Path 15"/><path fill="#006f3b" d="M125 70.18H14l11.41-18.14h111Z" data-name="Path 16"/><g fill="#006f3b" data-name="Group 1"><path d="M519.35 6.82h-2.29V6h5.56v.82h-2.3v6.69h-.98V6.82Z" data-name="Path 17"/><path d="M529.77 10.21c-.06-1.05-.12-2.32-.12-3.24h-.02c-.27.87-.57 1.82-.95 2.85l-1.33 3.65h-.74l-1.23-3.58c-.36-1.07-.65-2.03-.86-2.92h-.02c-.02.94-.08 2.19-.15 3.32l-.2 3.22h-.93l.53-7.51h1.24l1.28 3.63c.31.93.56 1.75.76 2.53h.02c.2-.76.47-1.58.8-2.53L529.19 6h1.24l.47 7.51h-.96Z" data-name="Path 18"/></g></g></svg>